<svg xmlns="http://www.w3.org/2000/svg" width="450" viewBox="0 0 450 284.25" height="284.25" version="1.0"><path fill="#FF1616" d="M 60.839844 110.78125 C 52.09375 112.054688 41.703125 115.34375 41.703125 116.839844 C 41.78125 119.460938 42.976562 119.984375 46.039062 118.710938 C 58.300781 113.773438 77.585938 112.578125 91.042969 115.871094 C 94.929688 116.765625 99.265625 118.039062 100.761719 118.636719 C 103.078125 119.683594 103.453125 119.609375 104.273438 118.488281 C 105.621094 116.617188 105.542969 116.242188 103.226562 115.34375 C 91.117188 110.632812 74.222656 108.835938 60.839844 110.78125 Z M 60.839844 110.78125"/><path fill="#FF1616" d="M 56.65625 117.367188 C 50.601562 118.710938 44.695312 120.957031 44.695312 121.929688 C 44.695312 123.125 50.972656 127.914062 52.46875 127.914062 C 52.695312 127.914062 52.917969 127.390625 52.917969 126.714844 C 52.917969 125.21875 57.328125 123.425781 61.066406 123.425781 C 64.578125 123.425781 63.90625 121.03125 68.988281 150.351562 C 70.859375 161.273438 72.652344 170.773438 72.953125 171.597656 C 73.324219 172.421875 74.746094 166.0625 76.765625 154.394531 C 78.558594 144.144531 80.503906 132.925781 81.175781 129.484375 L 82.296875 123.199219 L 86.855469 123.648438 C 90.59375 124.023438 91.640625 124.398438 92.984375 126.042969 L 94.480469 127.988281 L 98.144531 125.519531 C 100.164062 124.171875 101.882812 122.675781 102.03125 122.226562 C 102.554688 120.730469 92.984375 117.589844 84.015625 116.316406 L 80.425781 115.792969 L 76.839844 119.832031 L 73.324219 123.796875 L 69.738281 119.832031 C 65.777344 115.421875 65.851562 115.421875 56.65625 117.367188 Z M 56.65625 117.367188"/><path fill="#FF1616" d="M 132.15625 128.0625 C 132.15625 128.511719 133.503906 130.15625 135.148438 131.800781 C 138.210938 134.644531 138.210938 134.644531 144.492188 134.644531 L 150.84375 134.644531 L 150.84375 163.070312 L 158.320312 163.070312 L 158.320312 134.644531 L 164.152344 134.644531 C 170.878906 134.570312 174.167969 133.222656 176.410156 129.558594 L 177.90625 127.164062 L 155.03125 127.164062 C 138.210938 127.164062 132.15625 127.390625 132.15625 128.0625 Z M 132.15625 128.0625"/><path fill="#FF1616" d="M 194.949219 128.136719 C 194.949219 129.855469 197.34375 132.550781 199.882812 133.597656 C 203.324219 135.019531 226.871094 135.09375 230.308594 133.597656 C 232.851562 132.550781 234.792969 130.605469 235.542969 128.4375 C 235.988281 127.238281 234.71875 127.164062 215.507812 127.164062 C 199.285156 127.164062 194.949219 127.390625 194.949219 128.136719 Z M 194.949219 128.136719"/><path fill="#FF1616" d="M 256.097656 129.183594 C 255.949219 130.382812 255.949219 135.242188 256.097656 140.03125 L 256.324219 148.855469 L 288.394531 148.855469 L 288.394531 155.589844 L 276.058594 155.589844 C 266.640625 155.589844 263.050781 155.890625 260.957031 156.710938 C 257.894531 157.984375 255.726562 159.703125 254.679688 161.722656 C 254.007812 162.996094 255.128906 163.070312 274.5625 163.070312 L 295.121094 163.070312 L 295.121094 141.378906 L 262.902344 141.378906 L 263.125 137.785156 L 263.351562 134.269531 L 276.582031 134.046875 L 289.8125 133.898438 L 292.503906 131.351562 C 293.925781 130.007812 295.121094 128.511719 295.121094 127.988281 C 295.121094 127.390625 289.664062 127.164062 275.757812 127.164062 L 256.324219 127.164062 Z M 256.097656 129.183594"/><path fill="#FF1616" d="M 315.304688 145.117188 L 315.304688 163.070312 L 331.601562 163.070312 C 349.390625 163.070312 350.066406 162.921875 352.308594 158.582031 L 353.429688 156.335938 L 337.953125 156.1875 L 322.40625 155.964844 L 322.179688 141.527344 L 322.03125 127.164062 L 315.304688 127.164062 Z M 315.304688 145.117188"/><path fill="#FF1616" d="M 367.632812 128.210938 C 367.632812 129.558594 371.292969 133.148438 373.460938 133.972656 C 374.433594 134.34375 381.164062 134.644531 388.414062 134.644531 C 403.140625 134.644531 405.234375 134.046875 407.625 129.410156 L 408.820312 127.164062 L 388.1875 127.164062 C 371.292969 127.164062 367.632812 127.3125 367.632812 128.210938 Z M 367.632812 128.210938"/><path fill="#FF1616" d="M 194.949219 142.273438 C 195.023438 143.546875 196.296875 145.117188 198.988281 147.210938 C 201.003906 148.78125 201.828125 148.855469 214.984375 148.855469 C 230.308594 148.855469 232.027344 148.410156 234.792969 143.695312 L 236.140625 141.378906 L 215.582031 141.378906 C 199.585938 141.378906 194.949219 141.601562 194.949219 142.273438 Z M 194.949219 142.273438"/><path fill="#FF1616" d="M 368.378906 152.222656 L 368.378906 163.070312 L 375.480469 163.070312 L 375.480469 148.855469 L 400.523438 148.855469 L 400.523438 163.070312 L 408.074219 163.070312 L 407.847656 152.371094 L 407.625 141.75 L 388.039062 141.527344 L 368.378906 141.378906 Z M 368.378906 152.222656"/><path fill="#FF1616" d="M 194.949219 156.785156 C 194.949219 157.460938 196.144531 159.179688 197.640625 160.527344 L 200.257812 163.070312 L 214.910156 163.070312 C 227.019531 163.070312 229.859375 162.84375 231.578125 161.871094 C 233.375 160.75 236.066406 157.308594 236.066406 156.039062 C 236.066406 155.8125 226.796875 155.589844 215.507812 155.589844 C 196.96875 155.589844 194.949219 155.738281 194.949219 156.785156 Z M 194.949219 156.785156"/></svg>